# xmcd
#
# Track frame offsets:
#	150
#	14396
#	25985
#	37039
#	51981
#	67965
#	83909
#	109015
#	129527
#	146609
#	168918
#	183463
#	199380
#	211408
#
# Disc length: 3042 seconds
#
# Revision: 0
# Processed by: cddbd v1.5.2PL0 Copyright (c) Steve Scherf et al.
# Submitted via: audiograbber 1.83.01
#
DISCID=ca0be00e
DTITLE=Marta Kubisova - Ja jsem ja
DYEAR=2004
DGENRE=Pop
TTITLE0=Dobrodruzstvi s Bohem Panem
TTITLE1=Louda se pulmesic
TTITLE2=Depese
TTITLE3=Nechte zvony znit
TTITLE4=Cesta
TTITLE5=Lampa
TTITLE6=Ring-o-ding
TTITLE7=Hej Jude
TTITLE8=Magdalena
TTITLE9=Nechci byt ta druha
TTITLE10=Lip se louci v nedeli
TTITLE11=Co Ti dat
TTITLE12=Ja budu ja
TTITLE13=Vzkaz
EXTD=
EXTT0=
EXTT1=
EXTT2=
EXTT3=
EXTT4=
EXTT5=
EXTT6=
EXTT7=
EXTT8=
EXTT9=
EXTT10=
EXTT11=
EXTT12=
EXTT13=
PLAYORDER=
